<?xml version="1.0" standalone="no"?>
<!DOCTYPE svg PUBLIC "-//W3C//DTD SVG 20010904//EN"
 "http://www.w3.org/TR/2001/REC-SVG-20010904/DTD/svg10.dtd">
<svg version="1.0" xmlns="http://www.w3.org/2000/svg"
 width="300.000000pt" height="375.000000pt" viewBox="0 0 300.000000 375.000000"
 preserveAspectRatio="xMidYMid meet">
<metadata>
Created by potrace 1.10, written by Peter Selinger 2001-2011
</metadata>
<g transform="translate(0.000000,375.000000) scale(0.100000,-0.100000)"
fill="#000000" stroke="none">
<path d="M1332 2974 c-18 -12 -22 -24 -20 -52 3 -34 6 -38 48 -50 25 -7 56
-16 70 -20 34 -10 37 -37 5 -58 -23 -15 -33 -16 -68 -7 -23 6 -46 9 -51 6 -19
-12 30 -33 76 -33 39 0 54 5 73 25 49 48 23 88 -65 105 -59 11 -74 24 -59 51
12 24 41 31 84 23 28 -5 35 -3 35 10 0 22 -96 22 -128 0z"/>
<path d="M1792 2963 c-7 -3 -17 -16 -23 -30 -5 -14 -15 -23 -25 -21 -9 2 -19
-3 -21 -9 -3 -7 2 -13 11 -13 20 0 20 -11 -3 -87 -16 -53 -17 -62 -4 -67 19
-8 23 -7 21 2 -2 4 6 37 16 74 17 64 19 66 42 58 18 -7 24 -6 24 5 0 7 -9 17
-21 20 -33 11 -19 40 19 39 36 -2 42 10 13 26 -21 11 -29 11 -49 3z"/>
<path d="M1564 2930 c-58 -24 -70 -95 -25 -141 56 -55 137 -29 148 47 4 33 1
45 -18 67 -26 30 -72 42 -105 27z m78 -37 c24 -21 23 -68 -2 -93 -23 -23 -33
-24 -63 -9 -28 15 -37 28 -37 58 0 53 62 80 102 44z"/>
<path d="M1885 2889 c-4 -10 -11 -17 -16 -14 -18 12 -31 -7 -13 -19 15 -11 15
-15 -5 -54 -26 -51 -27 -84 -3 -105 23 -21 52 -22 52 -2 0 8 -9 15 -20 15 -26
0 -27 35 -3 85 15 32 21 36 45 31 33 -6 39 13 7 21 -15 4 -19 11 -15 28 7 29
-20 43 -29 14z"/>
<path d="M1980 2788 c-6 -24 -17 -64 -25 -90 -20 -71 -3 -76 74 -23 57 40 66
42 56 18 -14 -37 -31 -110 -27 -121 6 -20 19 -14 99 39 50 34 71 54 63 59 -8
5 -34 -8 -68 -31 -30 -22 -59 -39 -62 -39 -4 0 1 30 12 66 28 89 17 97 -61 45
-67 -46 -73 -42 -46 34 17 47 19 72 5 80 -5 3 -14 -14 -20 -37z"/>
<path d="M992 2808 c-7 -7 -12 -18 -12 -25 0 -15 -17 -18 -22 -3 -1 5 -8 6
-15 2 -14 -9 65 -152 85 -152 18 0 15 16 -13 60 -29 45 -32 72 -10 90 16 13
21 40 7 40 -4 0 -13 -5 -20 -12z"/>
<path d="M1183 2744 c-8 -21 13 -42 28 -27 13 13 5 43 -11 43 -6 0 -13 -7 -17
-16z"/>
<path d="M814 2686 c-59 -50 -19 -150 60 -150 51 0 112 62 87 87 -7 7 -12 5
-17 -9 -15 -41 -82 -71 -99 -44 -5 8 30 45 84 88 14 11 14 14 -8 32 -31 27
-74 25 -107 -4z m54 -56 c-24 -21 -46 -36 -50 -33 -10 6 -10 45 0 60 12 20 55
32 75 21 16 -8 13 -13 -25 -48z"/>
<path d="M2236 2613 c-12 -12 -6 -24 19 -33 34 -13 53 -54 35 -75 -11 -13 -17
-11 -47 20 -19 19 -41 35 -49 35 -30 0 -54 -21 -54 -46 0 -25 40 -74 60 -74 5
0 9 -3 9 -7 -5 -32 7 -30 52 8 72 60 79 79 45 124 -29 37 -59 58 -70 48z m-7
-105 c28 -30 29 -34 15 -45 -25 -18 -74 10 -74 41 0 14 6 27 13 29 6 3 13 6
14 6 1 1 16 -14 32 -31z"/>
<path d="M682 2545 c-20 -17 -32 -36 -32 -51 0 -18 -5 -24 -16 -22 -39 7 -18
-21 57 -77 114 -85 107 -81 119 -69 8 8 1 18 -25 35 -39 27 -44 39 -16 39 50
0 69 99 28 138 -38 36 -78 38 -115 7z m93 -30 c14 -13 25 -31 25 -40 0 -20
-44 -65 -63 -65 -26 0 -67 41 -67 66 0 29 33 64 60 64 12 0 32 -11 45 -25z"/>
<path d="M2308 2408 c-45 -27 -65 -44 -61 -54 4 -11 17 -8 60 17 46 27 58 30
79 20 13 -6 24 -15 24 -20 0 -6 6 -8 14 -5 19 7 9 32 -15 39 -14 5 -18 12 -14
26 9 28 -10 23 -87 -23z"/>
<path d="M580 2367 c-65 -33 -66 -129 -2 -160 54 -25 106 -3 123 52 15 50 -1
88 -46 106 -41 18 -43 18 -75 2z m72 -29 c30 -25 37 -50 22 -80 -12 -22 -21
-28 -49 -28 -41 0 -65 22 -65 60 0 47 56 76 92 48z"/>
<path d="M2380 2313 c-61 -22 -80 -99 -37 -149 14 -16 29 -24 36 -20 8 5 4 16
-14 38 -30 35 -31 48 -7 78 l19 23 23 -66 c13 -37 29 -67 36 -67 16 0 64 57
64 77 0 25 -32 71 -57 82 -26 12 -39 13 -63 4z m72 -40 c22 -19 23 -52 4 -79
-14 -18 -16 -17 -31 21 -10 22 -21 48 -26 58 -8 14 -6 17 12 17 12 0 31 -7 41
-17z"/>
<path d="M414 2195 c-4 -9 -5 -17 -3 -19 7 -5 204 -58 223 -59 31 -3 30 22 -1
29 -52 12 -195 54 -204 60 -5 3 -12 -2 -15 -11z"/>
<path d="M481 2073 c-12 -10 -24 -35 -28 -55 -5 -32 -1 -41 25 -68 69 -68 168
-7 147 91 -4 17 -13 29 -22 29 -10 0 -13 -5 -8 -17 16 -39 15 -50 -5 -76 -29
-36 -53 -36 -46 1 3 15 8 46 11 70 7 41 6 42 -23 42 -16 0 -39 -8 -51 -17z
m50 -44 c-2 -19 -5 -43 -6 -54 -3 -23 -23 -22 -40 2 -14 19 -9 51 13 76 23 26
38 15 33 -24z"/>
<path d="M2505 2022 c-16 -1 -52 -4 -80 -7 l-50 -6 3 -62 c3 -81 10 -109 24
-105 7 3 10 30 9 77 l-2 72 38 -3 c25 -2 38 -8 39 -18 1 -8 2 -34 2 -57 2 -31
6 -43 17 -43 12 0 14 11 8 60 l-6 60 32 0 c42 0 46 -2 47 -25 4 -98 4 -102 20
-102 14 0 15 8 10 51 -3 28 -6 66 -6 83 0 35 3 35 -105 25z"/>
<path d="M440 1890 c0 -12 20 -23 70 -40 39 -13 70 -26 70 -30 0 -3 -29 -20
-65 -38 -39 -19 -65 -38 -65 -48 0 -8 3 -14 8 -12 96 45 162 85 162 98 0 11
-29 28 -90 52 -77 30 -90 33 -90 18z"/>
<path d="M2380 1806 c0 -9 6 -16 13 -17 104 -7 152 -50 114 -103 -13 -18 -20
-18 -78 -9 -69 12 -74 11 -66 -10 3 -9 28 -17 67 -21 49 -6 67 -4 87 9 23 15
25 22 21 66 -4 38 -2 49 9 49 34 0 3 26 -38 31 -24 3 -63 10 -86 14 -36 6 -43
5 -43 -9z"/>
<path d="M519 1703 c-34 -23 -39 -33 -39 -74 0 -74 91 -110 146 -58 18 17 24
33 24 63 0 49 -32 98 -50 80 -9 -9 -7 -17 9 -33 25 -25 27 -63 5 -85 -22 -23
-30 -14 -44 54 -7 33 -16 63 -20 65 -4 2 -18 -3 -31 -12z m31 -54 c22 -82 22
-81 -2 -77 -34 5 -55 49 -40 83 14 31 33 29 42 -6z"/>
<path d="M2281 1616 c-30 -32 -39 -100 -17 -125 9 -10 47 -31 84 -46 37 -16
71 -32 77 -37 16 -14 27 -9 22 12 -3 14 3 29 19 45 53 54 12 145 -66 145 -12
0 -35 -14 -52 -30 -26 -26 -30 -36 -25 -65 5 -32 4 -34 -13 -25 -35 19 -43 46
-25 84 9 19 23 37 31 40 9 3 12 10 9 16 -9 15 -19 12 -44 -14z m160 -46 c19
-11 27 -63 11 -86 -26 -39 -79 -36 -102 6 -14 26 -13 34 11 64 22 28 48 33 80
16z"/>
<path d="M569 1505 c-62 -34 -74 -96 -34 -173 42 -82 32 -80 143 -18 l101 57
-30 52 c-42 72 -72 97 -117 97 -20 -1 -49 -7 -63 -15z m115 -39 c13 -12 31
-37 40 -54 l16 -30 -76 -41 c-42 -23 -77 -41 -80 -41 -10 0 -44 83 -44 110 0
69 95 106 144 56z"/>
<path d="M2247 1415 c-4 -8 -3 -15 2 -15 4 0 36 -18 71 -41 34 -22 69 -38 77
-35 8 3 12 10 9 15 -5 7 -115 74 -147 89 -4 2 -9 -4 -12 -13z"/>
<path d="M2206 1352 c-3 -5 15 -25 39 -46 47 -38 59 -78 33 -104 -17 -17 -63
-15 -78 3 -24 28 -70 56 -81 49 -13 -7 62 -79 99 -94 34 -14 81 13 89 50 4 21
11 30 25 30 27 0 21 10 -43 69 -56 50 -73 59 -83 43z"/>
<path d="M2433 1304 c-9 -23 11 -38 26 -20 13 16 7 36 -10 36 -5 0 -12 -7 -16
-16z"/>
<path d="M786 1219 c-14 -17 -26 -39 -26 -50 0 -42 38 -88 73 -89 25 0 21 -12
-13 -45 -21 -20 -27 -32 -19 -39 7 -8 29 10 75 59 81 88 98 111 89 126 -6 8
-10 8 -16 -2 -6 -10 -10 -9 -15 6 -25 71 -103 88 -148 34z m114 -14 c21 -25 8
-78 -22 -95 -25 -13 -31 -13 -55 0 -32 18 -42 62 -22 87 27 32 76 36 99 8z"/>
<path d="M2018 1170 c-29 -22 -43 -60 -23 -60 7 0 15 6 18 14 10 26 53 47 81
40 14 -3 26 -9 26 -13 0 -3 -25 -24 -55 -45 -30 -22 -55 -43 -55 -48 0 -16 65
-48 85 -42 30 8 75 61 75 88 0 14 -12 38 -26 55 -31 38 -87 43 -126 11z m122
-70 c0 -37 -38 -65 -75 -56 -33 9 -31 15 18 53 53 39 57 40 57 3z"/>
<path d="M1003 1133 c-23 -8 -14 -30 10 -26 28 6 77 -37 77 -67 0 -25 2 -25
-74 15 -48 26 -58 28 -66 15 -31 -48 14 -120 74 -120 42 0 72 23 86 65 11 33
9 43 -18 82 -11 16 -74 42 -89 36z m22 -105 c51 -25 55 -34 21 -49 -29 -14
-63 2 -75 34 -8 20 -6 37 4 37 3 0 25 -10 50 -22z"/>
<path d="M1846 1069 c-14 -11 -26 -27 -26 -35 0 -19 14 -18 31 2 20 25 57 36
80 24 30 -16 24 -25 -41 -53 -33 -15 -60 -31 -60 -35 0 -12 41 -48 63 -56 28
-9 84 21 97 54 13 33 8 57 -21 94 -26 33 -84 36 -123 5z m124 -71 c0 -47 -70
-79 -99 -44 -9 11 -2 18 36 38 61 32 63 32 63 6z"/>
<path d="M1153 943 c-71 -119 -68 -113 -50 -113 9 0 38 38 65 86 56 97 57 96
68 -33 4 -53 11 -84 20 -87 15 -6 17 -3 74 93 l45 75 6 -40 c4 -21 9 -64 10
-94 4 -52 12 -69 33 -70 4 0 6 19 2 43 -3 23 -9 76 -12 117 -3 41 -8 78 -11
83 -10 17 -34 4 -53 -30 -59 -105 -78 -134 -83 -127 -3 5 -8 51 -12 102 -10
125 -24 125 -102 -5z"/>
<path d="M1740 1031 c0 -5 8 -32 17 -61 l17 -53 -27 -23 c-15 -13 -27 -28 -27
-34 0 -18 28 -11 44 12 9 12 16 17 16 10 0 -6 7 -12 15 -12 18 0 18 4 1 66 -8
27 -17 61 -20 77 -6 24 -36 40 -36 18z"/>
<path d="M1551 1000 c-17 -10 -7 -40 14 -40 8 0 15 9 15 19 0 24 -12 32 -29
21z"/>
</g>
</svg>
